<svg width="30" height="24" viewBox="0 0 30 24" fill="none" xmlns="http://www.w3.org/2000/svg">
<path d="M9.66 4.82L14.5 17.32C14.7 17.7867 14.9067 18.1133 15.12 18.3C15.3467 18.4867 15.5467 18.5867 15.72 18.6V19C15.2933 18.9733 14.78 18.96 14.18 18.96C13.5933 18.9467 12.9933 18.94 12.38 18.94C11.74 18.94 11.1333 18.9467 10.56 18.96C9.98667 18.96 9.52667 18.9733 9.18 19V18.6C9.86 18.5733 10.2933 18.46 10.48 18.26C10.6667 18.0467 10.6267 17.6 10.36 16.92L7.04 7.84L7.44 7.24L4.52 14.78C4.21333 15.58 4.02667 16.2267 3.96 16.72C3.89333 17.2133 3.92667 17.5933 4.06 17.86C4.19333 18.1267 4.4 18.3133 4.68 18.42C4.97333 18.5267 5.32 18.5867 5.72 18.6V19C5.25333 18.9733 4.82 18.96 4.42 18.96C4.03333 18.9467 3.61333 18.94 3.16 18.94C2.89333 18.94 2.62 18.9467 2.34 18.96C2.07333 18.96 1.84 18.9733 1.64 19V18.6C1.93333 18.5467 2.22667 18.36 2.52 18.04C2.82667 17.72 3.12667 17.1667 3.42 16.38L7.92 4.82C8.18667 4.84667 8.47333 4.86 8.78 4.86C9.1 4.86 9.39333 4.84667 9.66 4.82ZM10.7 13.24V13.64H4.74L4.94 13.24H10.7ZM20.2738 22.76C19.4071 22.76 18.6471 22.6867 17.9938 22.54C17.3404 22.4067 16.8338 22.2 16.4738 21.92C16.1138 21.6533 15.9338 21.3267 15.9338 20.94C15.9338 20.54 16.1204 20.1733 16.4938 19.84C16.8671 19.52 17.4404 19.2667 18.2138 19.08L18.3938 19.4C18.1671 19.6267 18.0071 19.8467 17.9138 20.06C17.8204 20.2867 17.7738 20.5067 17.7738 20.72C17.7738 21.2667 18.0204 21.6867 18.5138 21.98C19.0071 22.2733 19.6871 22.42 20.5538 22.42C21.1538 22.42 21.6738 22.3333 22.1138 22.16C22.5538 22 22.8938 21.7667 23.1338 21.46C23.3738 21.1533 23.4938 20.7933 23.4938 20.38C23.4938 19.9933 23.3471 19.6667 23.0538 19.4C22.7738 19.1333 22.2004 19 21.3338 19H20.1738C19.6004 19 19.1071 18.9267 18.6938 18.78C18.2804 18.6333 17.9604 18.4267 17.7338 18.16C17.5204 17.8933 17.4138 17.56 17.4138 17.16C17.4138 16.56 17.6471 16.0533 18.1138 15.64C18.5804 15.2133 19.2271 14.82 20.0538 14.46L20.2338 14.62C20.0338 14.74 19.8404 14.88 19.6538 15.04C19.4804 15.2 19.3938 15.4133 19.3938 15.68C19.3938 16.1067 19.6471 16.32 20.1538 16.32H22.2138C23.0138 16.32 23.7204 16.4133 24.3338 16.6C24.9471 16.7733 25.4271 17.0667 25.7738 17.48C26.1338 17.88 26.3138 18.4067 26.3138 19.06C26.3138 19.7267 26.1004 20.34 25.6738 20.9C25.2471 21.46 24.5871 21.9067 23.6938 22.24C22.8138 22.5867 21.6738 22.76 20.2738 22.76ZM20.5338 14.74C19.7338 14.74 19.0204 14.6267 18.3938 14.4C17.7804 14.1733 17.2938 13.8267 16.9338 13.36C16.5738 12.88 16.3938 12.2733 16.3938 11.54C16.3938 10.8067 16.5738 10.2067 16.9338 9.74C17.2938 9.27333 17.7804 8.92667 18.3938 8.7C19.0204 8.47333 19.7338 8.36 20.5338 8.36C21.3204 8.36 22.0271 8.47333 22.6538 8.7C23.2804 8.92667 23.7738 9.27333 24.1338 9.74C24.4938 10.2067 24.6738 10.8067 24.6738 11.54C24.6738 12.2733 24.4938 12.88 24.1338 13.36C23.7738 13.8267 23.2804 14.1733 22.6538 14.4C22.0271 14.6267 21.3204 14.74 20.5338 14.74ZM20.5338 14.38C20.8271 14.38 21.0604 14.1733 21.2338 13.76C21.4204 13.3467 21.5138 12.6067 21.5138 11.54C21.5138 10.4733 21.4204 9.74 21.2338 9.34C21.0604 8.92667 20.8271 8.72 20.5338 8.72C20.2271 8.72 19.9871 8.92667 19.8138 9.34C19.6404 9.74 19.5538 10.4733 19.5538 11.54C19.5538 12.6067 19.6404 13.3467 19.8138 13.76C19.9871 14.1733 20.2271 14.38 20.5338 14.38ZM23.7138 10.1L23.2938 9.96C23.5071 9.41333 23.8338 8.97333 24.2738 8.64C24.7271 8.29333 25.2204 8.12 25.7538 8.12C26.1938 8.12 26.5204 8.24 26.7338 8.48C26.9604 8.72 27.0738 9.03333 27.0738 9.42C27.0738 9.80667 26.9671 10.1067 26.7538 10.32C26.5538 10.52 26.3138 10.62 26.0338 10.62C25.7938 10.62 25.5738 10.54 25.3738 10.38C25.1738 10.2067 25.0604 9.95333 25.0338 9.62C25.0071 9.27333 25.1271 8.84 25.3938 8.32L25.5138 8.44C25.0204 8.61333 24.6404 8.82667 24.3738 9.08C24.1204 9.33333 23.9004 9.67333 23.7138 10.1Z" fill="black"/>
</svg>
