<svg width="30" height="24" viewBox="0 0 30 24" fill="none" xmlns="http://www.w3.org/2000/svg">
<path d="M9.05078 7.21289L5.18359 19H2.06836L7.35156 4.78125H9.33398L9.05078 7.21289ZM12.2637 19L8.38672 7.21289L8.07422 4.78125H10.0762L15.3887 19H12.2637ZM12.0879 13.707V16.002H4.57812V13.707H12.0879ZM23.5207 8.43359H26.0695V18.6484C26.0695 19.612 25.8547 20.429 25.425 21.0996C25.0018 21.7767 24.4094 22.2878 23.6477 22.6328C22.8859 22.9844 22.0005 23.1602 20.9914 23.1602C20.5487 23.1602 20.0799 23.1016 19.5852 22.9844C19.0969 22.8672 18.6281 22.6849 18.1789 22.4375C17.7362 22.1901 17.3651 21.8776 17.0656 21.5L18.3059 19.8398C18.6314 20.2174 19.009 20.5104 19.4387 20.7188C19.8684 20.9336 20.3436 21.041 20.8645 21.041C21.3723 21.041 21.802 20.9466 22.1535 20.7578C22.5051 20.5755 22.7753 20.3053 22.9641 19.9473C23.1529 19.5957 23.2473 19.1693 23.2473 18.668V10.875L23.5207 8.43359ZM16.4113 13.8438V13.6387C16.4113 12.8314 16.509 12.099 16.7043 11.4414C16.9061 10.7773 17.1893 10.2077 17.5539 9.73242C17.925 9.25716 18.3742 8.88932 18.9016 8.62891C19.4289 8.36849 20.0246 8.23828 20.6887 8.23828C21.3918 8.23828 21.981 8.36849 22.4563 8.62891C22.9315 8.88932 23.3221 9.26042 23.6281 9.74219C23.9341 10.2174 24.1717 10.7806 24.341 11.4316C24.5168 12.0762 24.6535 12.7826 24.7512 13.5508V14C24.6535 14.7357 24.507 15.4193 24.3117 16.0508C24.1164 16.6823 23.8592 17.2357 23.5402 17.7109C23.2212 18.1797 22.8241 18.5443 22.3488 18.8047C21.8801 19.0651 21.3202 19.1953 20.6691 19.1953C20.0181 19.1953 19.4289 19.0618 18.9016 18.7949C18.3807 18.528 17.9348 18.1536 17.5637 17.6719C17.1926 17.1901 16.9061 16.6237 16.7043 15.9727C16.509 15.3216 16.4113 14.612 16.4113 13.8438ZM19.2238 13.6387V13.8438C19.2238 14.2799 19.2661 14.6868 19.3508 15.0645C19.4354 15.4421 19.5656 15.7773 19.7414 16.0703C19.9237 16.3568 20.1483 16.5814 20.4152 16.7441C20.6887 16.9004 21.0109 16.9785 21.382 16.9785C21.8964 16.9785 22.3163 16.8711 22.6418 16.6562C22.9673 16.4349 23.2115 16.1322 23.3742 15.748C23.537 15.3639 23.6314 14.9212 23.6574 14.4199V13.1406C23.6444 12.7305 23.5891 12.3626 23.4914 12.0371C23.3938 11.7051 23.257 11.4219 23.0813 11.1875C22.9055 10.9531 22.6776 10.7708 22.3977 10.6406C22.1177 10.5104 21.7857 10.4453 21.4016 10.4453C21.0305 10.4453 20.7082 10.5299 20.4348 10.6992C20.1678 10.862 19.9432 11.0866 19.7609 11.373C19.5852 11.6595 19.4517 11.998 19.3605 12.3887C19.2694 12.7728 19.2238 13.1895 19.2238 13.6387Z" fill="black"/>
</svg>
