<?xml version="1.0" standalone="no"?>
<!DOCTYPE svg PUBLIC "-//W3C//DTD SVG 20010904//EN"
 "http://www.w3.org/TR/2001/REC-SVG-20010904/DTD/svg10.dtd">
<svg version="1.0" xmlns="http://www.w3.org/2000/svg"
 width="520.000000pt" height="520.000000pt" viewBox="0 0 520.000000 520.000000"
 preserveAspectRatio="xMidYMid meet">
<metadata>
Created by potrace 1.14, written by Peter Selinger 2001-2017
</metadata>
<g transform="translate(0.000000,520.000000) scale(0.100000,-0.100000)"
fill="#000000" stroke="none">
<path d="M414 4605 c-2 -5 -3 -264 -1 -575 l2 -565 2213 0 2212 -1 -2 576 -3
575 -2209 0 c-1464 0 -2210 -3 -2212 -10z"/>
<path d="M414 3176 c-2 -6 -2 -265 -1 -576 l2 -565 1735 -1 c954 0 1769 -4
1810 -8 103 -10 144 -22 179 -52 27 -22 48 -75 44 -109 -8 -65 -17 -87 -46
-109 -31 -24 -54 -31 -142 -43 -22 -3 -836 -6 -1810 -7 l-1770 -1 0 -575 0
-575 1570 0 c1962 1 2021 3 2222 71 378 129 621 472 708 999 15 86 22 415 11
470 -2 11 -7 46 -11 79 -25 212 -93 400 -199 556 -29 43 -51 69 -121 145 -85
92 -281 212 -415 254 -68 21 -97 26 -195 36 -33 3 -80 8 -105 11 -91 12 -3462
11 -3466 0z"/>
</g>
</svg>
