<svg width="30" height="24" viewBox="0 0 30 24" fill="none" xmlns="http://www.w3.org/2000/svg">
<path d="M3.076 18.5V17.189C3.43067 17.189 3.71567 17.0877 3.931 16.885C4.14633 16.6823 4.32367 16.4163 4.463 16.087C4.615 15.7577 4.76067 15.403 4.9 15.023L8.605 4.858H9.935L13.982 15.213C14.058 15.403 14.1593 15.6943 14.286 16.087C14.4127 16.467 14.4887 16.8027 14.514 17.094C14.7293 17.0687 14.932 17.056 15.122 17.056C15.3247 17.0433 15.4893 17.037 15.616 17.037V18.5H10.505V17.246C10.8597 17.246 11.1003 17.1763 11.227 17.037C11.3663 16.885 11.4297 16.6823 11.417 16.429C11.4043 16.1757 11.3347 15.8907 11.208 15.574L10.828 14.529L6.705 14.605L6.401 15.498C6.33767 15.6627 6.24267 15.9097 6.116 16.239C6.002 16.5557 5.89433 16.8217 5.793 17.037C5.99567 17.0117 6.23633 16.999 6.515 16.999C6.80633 16.9863 7.01533 16.98 7.142 16.98V18.5H3.076ZM7.18 13.18H10.353L9.479 10.805C9.31433 10.349 9.16867 9.893 9.042 9.437C8.91533 8.96833 8.82033 8.55667 8.757 8.202H8.738C8.68733 8.41733 8.61133 8.74033 8.51 9.171C8.40867 9.60167 8.25033 10.1147 8.035 10.71L7.18 13.18ZM20.7441 23.649C19.6547 23.649 18.7934 23.5287 18.1601 23.288C17.5267 23.06 17.0771 22.756 16.8111 22.376C16.5451 21.996 16.4121 21.5907 16.4121 21.16C16.4121 20.894 16.4691 20.628 16.5831 20.362C16.6971 20.096 16.8807 19.8363 17.1341 19.583C17.4001 19.3423 17.7611 19.1397 18.2171 18.975C17.6977 18.8357 17.3304 18.614 17.1151 18.31C16.9124 17.9933 16.8111 17.6577 16.8111 17.303C16.8111 16.9737 16.9441 16.6063 17.2101 16.201C17.4761 15.783 17.9574 15.4663 18.6541 15.251C18.1221 15.0357 17.6851 14.7 17.3431 14.244C17.0011 13.788 16.8174 13.237 16.7921 12.591C16.7667 11.831 16.9567 11.1597 17.3621 10.577C17.7674 9.98167 18.2994 9.51933 18.9581 9.19C19.6167 8.86067 20.3071 8.696 21.0291 8.696C21.3584 8.696 21.7384 8.74033 22.1691 8.829C22.5997 8.91767 22.9734 9.06967 23.2901 9.285C23.4294 8.89233 23.6067 8.525 23.8221 8.183C24.0501 7.82833 24.3224 7.54333 24.6391 7.328C24.9557 7.1 25.3104 6.986 25.7031 6.986C26.1337 6.986 26.4567 7.1 26.6721 7.328C26.9001 7.54333 27.0141 7.83467 27.0141 8.202C27.0141 8.354 26.9761 8.525 26.9001 8.715C26.8367 8.89233 26.7164 9.04433 26.5391 9.171C26.3744 9.29767 26.1401 9.361 25.8361 9.361C25.6461 9.361 25.4561 9.29133 25.2661 9.152C25.0761 9 24.9621 8.82267 24.9241 8.62C24.7594 8.67067 24.5947 8.83533 24.4301 9.114C24.2654 9.39267 24.1704 9.63967 24.1451 9.855C24.5124 10.1717 24.7911 10.539 24.9811 10.957C25.1711 11.375 25.2661 11.8247 25.2661 12.306C25.2661 13.0407 25.0571 13.693 24.6391 14.263C24.2337 14.8203 23.7017 15.2637 23.0431 15.593C22.3971 15.9097 21.7004 16.068 20.9531 16.068C20.7884 16.068 20.6047 16.0617 20.4021 16.049C20.1994 16.0237 20.0031 16.011 19.8131 16.011C19.5344 16.011 19.3001 16.0617 19.1101 16.163C18.9201 16.2643 18.8251 16.4037 18.8251 16.581C18.8251 16.8217 19.0087 16.9863 19.3761 17.075C19.7434 17.1637 20.3704 17.2333 21.2571 17.284C22.2324 17.3347 23.0811 17.4613 23.8031 17.664C24.5377 17.854 25.1077 18.158 25.5131 18.576C25.9184 18.994 26.1211 19.5703 26.1211 20.305C26.1211 20.8497 25.9627 21.3247 25.6461 21.73C25.3294 22.148 24.9051 22.4963 24.3731 22.775C23.8537 23.0663 23.2774 23.2817 22.6441 23.421C22.0107 23.573 21.3774 23.649 20.7441 23.649ZM21.2951 22.338C22.1944 22.338 22.8721 22.1733 23.3281 21.844C23.7967 21.5147 24.0311 21.1727 24.0311 20.818C24.0311 20.552 23.9297 20.3303 23.7271 20.153C23.5244 19.9883 23.2204 19.8553 22.8151 19.754C22.4224 19.6527 21.9157 19.5893 21.2951 19.564C21.0164 19.5387 20.6934 19.5197 20.3261 19.507C19.9587 19.4943 19.6357 19.4627 19.3571 19.412C19.1671 19.564 19.0214 19.754 18.9201 19.982C18.8187 20.21 18.7617 20.4317 18.7491 20.647C18.7237 21.1537 18.9391 21.559 19.3951 21.863C19.8637 22.1797 20.4971 22.338 21.2951 22.338ZM21.0291 14.795C21.3711 14.795 21.6561 14.6873 21.8841 14.472C22.1247 14.2567 22.3021 13.9843 22.4161 13.655C22.5427 13.3257 22.6061 12.99 22.6061 12.648C22.6061 12.2047 22.5491 11.7803 22.4351 11.375C22.3211 10.957 22.1437 10.6213 21.9031 10.368C21.6751 10.102 21.3774 9.969 21.0101 9.969C20.5034 9.969 20.1107 10.197 19.8321 10.653C19.5534 11.109 19.4141 11.6283 19.4141 12.211C19.4141 12.6543 19.4774 13.0787 19.6041 13.484C19.7307 13.8767 19.9144 14.1933 20.1551 14.434C20.3957 14.6747 20.6871 14.795 21.0291 14.795Z" fill="black"/>
</svg>
