<svg width="30" height="24" viewBox="0 0 30 24" fill="none" xmlns="http://www.w3.org/2000/svg">
<path d="M0.0606254 19L6.30063 5H9.50063L15.7606 19H12.3606L7.24063 6.64H8.52063L3.38063 19H0.0606254ZM3.18063 16L4.04063 13.54H11.2406L12.1206 16H3.18063ZM22.2555 23.04C21.2421 23.04 20.2621 22.9133 19.3155 22.66C18.3821 22.42 17.6021 22.0533 16.9755 21.56L18.2155 19.32C18.6688 19.6933 19.2421 19.9867 19.9355 20.2C20.6421 20.4267 21.3355 20.54 22.0155 20.54C23.1221 20.54 23.9221 20.2933 24.4155 19.8C24.9221 19.3067 25.1755 18.5733 25.1755 17.6V15.98L25.3755 13.28L25.3355 10.56V8.24H28.2955V17.2C28.2955 19.2 27.7755 20.6733 26.7355 21.62C25.6955 22.5667 24.2021 23.04 22.2555 23.04ZM21.7755 18.48C20.7755 18.48 19.8688 18.2667 19.0555 17.84C18.2555 17.4 17.6088 16.7933 17.1155 16.02C16.6355 15.2333 16.3955 14.32 16.3955 13.28C16.3955 12.2267 16.6355 11.3133 17.1155 10.54C17.6088 9.75333 18.2555 9.14667 19.0555 8.72C19.8688 8.29333 20.7755 8.08 21.7755 8.08C22.6821 8.08 23.4821 8.26667 24.1755 8.64C24.8688 9 25.4088 9.56667 25.7955 10.34C26.1821 11.1 26.3755 12.08 26.3755 13.28C26.3755 14.4667 26.1821 15.4467 25.7955 16.22C25.4088 16.98 24.8688 17.5467 24.1755 17.92C23.4821 18.2933 22.6821 18.48 21.7755 18.48ZM22.3955 15.92C22.9421 15.92 23.4288 15.8133 23.8555 15.6C24.2821 15.3733 24.6155 15.06 24.8555 14.66C25.0955 14.26 25.2155 13.8 25.2155 13.28C25.2155 12.7467 25.0955 12.2867 24.8555 11.9C24.6155 11.5 24.2821 11.1933 23.8555 10.98C23.4288 10.7533 22.9421 10.64 22.3955 10.64C21.8488 10.64 21.3621 10.7533 20.9355 10.98C20.5088 11.1933 20.1688 11.5 19.9155 11.9C19.6755 12.2867 19.5555 12.7467 19.5555 13.28C19.5555 13.8 19.6755 14.26 19.9155 14.66C20.1688 15.06 20.5088 15.3733 20.9355 15.6C21.3621 15.8133 21.8488 15.92 22.3955 15.92Z" fill="black"/>
</svg>
