<svg width="30" height="24" viewBox="0 0 30 24" fill="none" xmlns="http://www.w3.org/2000/svg">
<path d="M12.5371 19L11.502 15.6016H6.29688L5.26172 19H2L7.03906 4.66406H10.7402L15.7988 19H12.5371ZM10.7793 13.0625C9.82227 9.98307 9.2819 8.24154 9.1582 7.83789C9.04102 7.43424 8.95638 7.11523 8.9043 6.88086C8.68945 7.71419 8.07422 9.77474 7.05859 13.0625H10.7793ZM27.173 8.08203V9.5957L25.4641 10.0352C25.7766 10.5234 25.9328 11.0703 25.9328 11.6758C25.9328 12.8477 25.5227 13.7624 24.7023 14.4199C23.8885 15.071 22.7557 15.3965 21.3039 15.3965L20.7668 15.3672L20.3273 15.3184C20.0214 15.5527 19.8684 15.8132 19.8684 16.0996C19.8684 16.5293 20.4152 16.7441 21.509 16.7441H23.3645C24.5624 16.7441 25.4738 17.0013 26.0988 17.5156C26.7303 18.0299 27.0461 18.7852 27.0461 19.7812C27.0461 21.0573 26.5122 22.0469 25.4445 22.75C24.3833 23.4531 22.8566 23.8047 20.8645 23.8047C19.341 23.8047 18.1757 23.5378 17.3684 23.0039C16.5676 22.4766 16.1672 21.7344 16.1672 20.7773C16.1672 20.1198 16.3723 19.5697 16.7824 19.127C17.1926 18.6842 17.7948 18.3685 18.5891 18.1797C18.2831 18.0495 18.0161 17.8379 17.7883 17.5449C17.5604 17.2454 17.4465 16.9297 17.4465 16.5977C17.4465 16.181 17.5669 15.8359 17.8078 15.5625C18.0487 15.2826 18.397 15.0091 18.8527 14.7422C18.2798 14.4948 17.8241 14.0977 17.4855 13.5508C17.1535 13.0039 16.9875 12.3594 16.9875 11.6172C16.9875 10.4258 17.3749 9.50456 18.1496 8.85352C18.9243 8.20247 20.0311 7.87695 21.4699 7.87695C21.7759 7.87695 22.1372 7.90625 22.5539 7.96484C22.9771 8.01693 23.2473 8.05599 23.3645 8.08203H27.173ZM18.7453 20.543C18.7453 20.9531 18.9406 21.2754 19.3313 21.5098C19.7284 21.7441 20.2818 21.8613 20.9914 21.8613C22.0591 21.8613 22.8957 21.7148 23.5012 21.4219C24.1066 21.1289 24.4094 20.7285 24.4094 20.2207C24.4094 19.8105 24.2303 19.5273 23.8723 19.3711C23.5142 19.2148 22.9608 19.1367 22.2121 19.1367H20.6691C20.1223 19.1367 19.6633 19.2637 19.2922 19.5176C18.9276 19.778 18.7453 20.1198 18.7453 20.543ZM19.8293 11.6562C19.8293 12.2487 19.9628 12.7174 20.2297 13.0625C20.5031 13.4076 20.9165 13.5801 21.4699 13.5801C22.0298 13.5801 22.44 13.4076 22.7004 13.0625C22.9608 12.7174 23.091 12.2487 23.091 11.6562C23.091 10.3411 22.5507 9.68359 21.4699 9.68359C20.3762 9.68359 19.8293 10.3411 19.8293 11.6562Z" fill="#111"/>
</svg>
