<svg width="30" height="24" viewBox="0 0 30 24" fill="none" xmlns="http://www.w3.org/2000/svg">
<path d="M8.1 11.9L7.78 13.1H10.56L10.26 11.9C10.0867 11.2467 9.90667 10.5533 9.72 9.82C9.54667 9.08667 9.37333 8.38 9.2 7.7H9.12C8.96 8.39333 8.79333 9.10667 8.62 9.84C8.46 10.56 8.28667 11.2467 8.1 11.9ZM3.38 18.5L7.46 5.46H11L15.08 18.5H11.96L11.16 15.4H7.18L6.38 18.5H3.38ZM20.1048 22.72C19.3315 22.72 18.6315 22.6333 18.0048 22.46C17.3782 22.2867 16.8782 22.0133 16.5048 21.64C16.1315 21.2667 15.9448 20.7867 15.9448 20.2C15.9448 19.4 16.4182 18.7333 17.3648 18.2V18.12C17.1115 17.9467 16.8915 17.7267 16.7048 17.46C16.5315 17.1933 16.4448 16.8533 16.4448 16.44C16.4448 16.08 16.5515 15.7333 16.7648 15.4C16.9782 15.0667 17.2448 14.7933 17.5648 14.58V14.5C17.2182 14.26 16.9048 13.9133 16.6248 13.46C16.3582 13.0067 16.2248 12.4933 16.2248 11.92C16.2248 11.12 16.4182 10.46 16.8048 9.94C17.1915 9.40667 17.6982 9.00667 18.3248 8.74C18.9515 8.47333 19.6182 8.34 20.3248 8.34C20.9115 8.34 21.4248 8.42 21.8648 8.58H25.4848V10.72H23.9048C23.9982 10.8667 24.0715 11.0533 24.1248 11.28C24.1915 11.5067 24.2248 11.7533 24.2248 12.02C24.2248 12.78 24.0515 13.4067 23.7048 13.9C23.3582 14.3933 22.8915 14.76 22.3048 15C21.7182 15.24 21.0582 15.36 20.3248 15.36C19.9382 15.36 19.5382 15.2933 19.1248 15.16C18.8848 15.36 18.7648 15.6067 18.7648 15.9C18.7648 16.1533 18.8782 16.34 19.1048 16.46C19.3315 16.58 19.7182 16.64 20.2648 16.64H21.8648C23.0915 16.64 24.0248 16.84 24.6648 17.24C25.3182 17.6267 25.6448 18.2667 25.6448 19.16C25.6448 19.84 25.4182 20.4467 24.9648 20.98C24.5115 21.5267 23.8715 21.9533 23.0448 22.26C22.2182 22.5667 21.2382 22.72 20.1048 22.72ZM20.3248 13.58C20.7115 13.58 21.0315 13.44 21.2848 13.16C21.5515 12.88 21.6848 12.4667 21.6848 11.92C21.6848 11.4 21.5515 11.0067 21.2848 10.74C21.0315 10.46 20.7115 10.32 20.3248 10.32C19.9382 10.32 19.6115 10.4533 19.3448 10.72C19.0915 10.9867 18.9648 11.3867 18.9648 11.92C18.9648 12.4667 19.0915 12.88 19.3448 13.16C19.6115 13.44 19.9382 13.58 20.3248 13.58ZM20.5648 20.88C21.2315 20.88 21.7782 20.76 22.2048 20.52C22.6315 20.28 22.8448 19.9933 22.8448 19.66C22.8448 19.3533 22.7115 19.1467 22.4448 19.04C22.1915 18.9333 21.8182 18.88 21.3248 18.88H20.3048C19.9715 18.88 19.6915 18.8667 19.4648 18.84C19.2515 18.8267 19.0648 18.8 18.9048 18.76C18.5448 19.08 18.3648 19.4067 18.3648 19.74C18.3648 20.1133 18.5648 20.3933 18.9648 20.58C19.3782 20.78 19.9115 20.88 20.5648 20.88Z" fill="black"/>
</svg>
