<svg width="30" height="24" viewBox="0 0 30 24" fill="currentColor" xmlns="http://www.w3.org/2000/svg">
<path d="M11.75 13.54L9.99 8.73C9.90333 8.51667 9.81333 8.26333 9.72 7.97C9.62667 7.67667 9.53333 7.36 9.44 7.02C9.35333 7.36 9.26333 7.68 9.17 7.98C9.07667 8.27333 8.98667 8.53 8.9 8.75L7.15 13.54H11.75ZM16.5 19H14.42C14.1867 19 13.9967 18.9433 13.85 18.83C13.7033 18.71 13.5933 18.5633 13.52 18.39L12.44 15.44H6.45L5.37 18.39C5.31667 18.5433 5.21333 18.6833 5.06 18.81C4.90667 18.9367 4.71667 19 4.49 19H2.39L8.08 4.54H10.82L16.5 19ZM21.6567 13.62C21.9634 13.62 22.2301 13.58 22.4567 13.5C22.6834 13.4133 22.8701 13.2967 23.0167 13.15C23.1701 13.0033 23.2834 12.8267 23.3567 12.62C23.4367 12.4133 23.4767 12.1867 23.4767 11.94C23.4767 11.4333 23.3234 11.0333 23.0167 10.74C22.7167 10.44 22.2634 10.29 21.6567 10.29C21.0501 10.29 20.5934 10.44 20.2867 10.74C19.9867 11.0333 19.8367 11.4333 19.8367 11.94C19.8367 12.18 19.8734 12.4033 19.9467 12.61C20.0267 12.8167 20.1401 12.9967 20.2867 13.15C20.4401 13.2967 20.6301 13.4133 20.8567 13.5C21.0901 13.58 21.3567 13.62 21.6567 13.62ZM24.4467 19.46C24.4467 19.26 24.3867 19.0967 24.2667 18.97C24.1467 18.8433 23.9834 18.7467 23.7767 18.68C23.5701 18.6067 23.3267 18.5533 23.0467 18.52C22.7734 18.4867 22.4801 18.4633 22.1667 18.45C21.8601 18.43 21.5401 18.4133 21.2067 18.4C20.8801 18.3867 20.5601 18.36 20.2467 18.32C19.9734 18.4733 19.7501 18.6533 19.5767 18.86C19.4101 19.0667 19.3267 19.3067 19.3267 19.58C19.3267 19.76 19.3701 19.9267 19.4567 20.08C19.5501 20.24 19.6934 20.3767 19.8867 20.49C20.0867 20.6033 20.3434 20.69 20.6567 20.75C20.9701 20.8167 21.3534 20.85 21.8067 20.85C22.2667 20.85 22.6634 20.8133 22.9967 20.74C23.3301 20.6733 23.6034 20.5767 23.8167 20.45C24.0367 20.33 24.1967 20.1833 24.2967 20.01C24.3967 19.8433 24.4467 19.66 24.4467 19.46ZM26.9067 9.09V10.01C26.9067 10.3033 26.7301 10.4833 26.3767 10.55L25.4567 10.72C25.5967 11.0733 25.6667 11.46 25.6667 11.88C25.6667 12.3867 25.5634 12.8467 25.3567 13.26C25.1567 13.6667 24.8767 14.0133 24.5167 14.3C24.1567 14.5867 23.7301 14.81 23.2367 14.97C22.7501 15.1233 22.2234 15.2 21.6567 15.2C21.4567 15.2 21.2634 15.19 21.0767 15.17C20.8901 15.15 20.7067 15.1233 20.5267 15.09C20.2067 15.2833 20.0467 15.5 20.0467 15.74C20.0467 15.9467 20.1401 16.1 20.3267 16.2C20.5201 16.2933 20.7734 16.36 21.0867 16.4C21.4001 16.44 21.7567 16.4667 22.1567 16.48C22.5567 16.4867 22.9667 16.5067 23.3867 16.54C23.8067 16.5733 24.2167 16.6333 24.6167 16.72C25.0167 16.8 25.3734 16.93 25.6867 17.11C26.0001 17.29 26.2501 17.5367 26.4367 17.85C26.6301 18.1567 26.7267 18.5533 26.7267 19.04C26.7267 19.4933 26.6134 19.9333 26.3867 20.36C26.1667 20.7867 25.8434 21.1667 25.4167 21.5C24.9967 21.8333 24.4767 22.1 23.8567 22.3C23.2434 22.5067 22.5434 22.61 21.7567 22.61C20.9834 22.61 20.3101 22.5333 19.7367 22.38C19.1634 22.2333 18.6867 22.0333 18.3067 21.78C17.9267 21.5333 17.6434 21.2467 17.4567 20.92C17.2701 20.5933 17.1767 20.2533 17.1767 19.9C17.1767 19.42 17.3201 19.02 17.6067 18.7C17.9001 18.3733 18.3001 18.1133 18.8067 17.92C18.5334 17.78 18.3167 17.5933 18.1567 17.36C17.9967 17.1267 17.9167 16.82 17.9167 16.44C17.9167 16.2867 17.9434 16.13 17.9967 15.97C18.0567 15.8033 18.1401 15.64 18.2467 15.48C18.3601 15.32 18.5001 15.17 18.6667 15.03C18.8334 14.8833 19.0301 14.7533 19.2567 14.64C18.7367 14.36 18.3267 13.9867 18.0267 13.52C17.7334 13.0533 17.5867 12.5067 17.5867 11.88C17.5867 11.3733 17.6867 10.9167 17.8867 10.51C18.0934 10.0967 18.3767 9.74667 18.7367 9.46C19.1034 9.16667 19.5334 8.94333 20.0267 8.79C20.5267 8.63667 21.0701 8.56 21.6567 8.56C22.0967 8.56 22.5101 8.60667 22.8967 8.7C23.2834 8.78667 23.6367 8.91667 23.9567 9.09H26.9067Z" fill="#222"/>
</svg>
