<svg width="30" height="24" viewBox="0 0 30 24" fill="none" xmlns="http://www.w3.org/2000/svg">
<path d="M4.9 20L8.14 3.8H11.3L14.54 20H11.8L11.16 16.26H8.34L7.68 20H4.9ZM8.64 14.38H10.84L9.74 7.58L8.64 14.38ZM19.6892 23.8C18.9026 23.8 18.2092 23.72 17.6092 23.56C17.0092 23.4 16.5426 23.1533 16.2092 22.82C15.8759 22.4867 15.7092 22.0533 15.7092 21.52C15.7092 21.16 15.7826 20.8333 15.9292 20.54C16.0892 20.26 16.3026 20.0133 16.5692 19.8C16.8359 19.5867 17.1226 19.4067 17.4292 19.26C16.9892 19.14 16.6492 18.9467 16.4092 18.68C16.1826 18.4133 16.0692 18.0933 16.0692 17.72C16.0692 17.2667 16.1826 16.88 16.4092 16.56C16.6359 16.24 16.9492 15.9 17.3492 15.54C16.9359 15.2067 16.6226 14.7933 16.4092 14.3C16.2092 13.7933 16.1092 13.1333 16.1092 12.32C16.1092 11.44 16.2492 10.7 16.5292 10.1C16.8226 9.48667 17.2426 9.02667 17.7892 8.72C18.3492 8.41333 19.0292 8.26 19.8292 8.26C20.4426 8.26 20.9559 8.35333 21.3692 8.54C21.7826 8.71333 22.1226 8.98 22.3892 9.34C22.4959 9.18 22.6826 8.98 22.9492 8.74C23.2159 8.5 23.5226 8.3 23.8692 8.14L24.2292 7.98L24.8892 9.44C24.7426 9.48 24.5426 9.54667 24.2892 9.64C24.0492 9.73333 23.8092 9.83333 23.5692 9.94C23.3292 10.0467 23.1426 10.14 23.0092 10.22C23.1292 10.4867 23.2292 10.82 23.3092 11.22C23.3892 11.62 23.4292 12 23.4292 12.36C23.4292 13.1733 23.3026 13.88 23.0492 14.48C22.7959 15.08 22.4026 15.5467 21.8692 15.88C21.3492 16.2 20.6692 16.36 19.8292 16.36C19.5492 16.36 19.2759 16.34 19.0092 16.3C18.7426 16.2467 18.4959 16.1867 18.2692 16.12C18.1892 16.24 18.1092 16.3667 18.0292 16.5C17.9626 16.6333 17.9292 16.7733 17.9292 16.92C17.9292 17.0667 18.0092 17.1867 18.1692 17.28C18.3292 17.3733 18.5959 17.44 18.9692 17.48L21.4092 17.72C22.3559 17.8133 23.0559 18.1133 23.5092 18.62C23.9626 19.1133 24.1892 19.7867 24.1892 20.64C24.1892 21.3333 24.0292 21.9133 23.7092 22.38C23.4026 22.8467 22.9159 23.2 22.2492 23.44C21.5959 23.68 20.7426 23.8 19.6892 23.8ZM19.9892 21.76C20.7359 21.76 21.2959 21.6867 21.6692 21.54C22.0426 21.3933 22.2292 21.1267 22.2292 20.74C22.2292 20.5267 22.1826 20.3533 22.0892 20.22C21.9959 20.0867 21.8292 19.98 21.5892 19.9C21.3492 19.8067 21.0092 19.74 20.5692 19.7L18.5892 19.52C18.4426 19.64 18.3092 19.7667 18.1892 19.9C18.0826 20.02 17.9959 20.1533 17.9292 20.3C17.8626 20.4467 17.8292 20.6 17.8292 20.76C17.8292 21.0933 17.9892 21.34 18.3092 21.5C18.6292 21.6733 19.1892 21.76 19.9892 21.76ZM19.8292 14.62C20.0692 14.62 20.2626 14.58 20.4092 14.5C20.5559 14.4067 20.6692 14.2667 20.7492 14.08C20.8292 13.88 20.8826 13.6333 20.9092 13.34C20.9359 13.0467 20.9492 12.7067 20.9492 12.32C20.9492 11.9333 20.9359 11.5933 20.9092 11.3C20.8826 11.0067 20.8292 10.76 20.7492 10.56C20.6826 10.36 20.5759 10.2133 20.4292 10.12C20.2826 10.0267 20.0826 9.98 19.8292 9.98C19.5892 9.98 19.3892 10.0267 19.2292 10.12C19.0826 10.2133 18.9692 10.36 18.8892 10.56C18.8226 10.7467 18.7692 10.9867 18.7292 11.28C18.7026 11.5733 18.6892 11.92 18.6892 12.32C18.6892 12.6933 18.7026 13.0267 18.7292 13.32C18.7559 13.6 18.8092 13.84 18.8892 14.04C18.9692 14.2267 19.0826 14.3733 19.2292 14.48C19.3892 14.5733 19.5892 14.62 19.8292 14.62Z" fill="#111"/>
</svg>
