<svg width="30" height="24" viewBox="0 0 30 24" fill="none" xmlns="http://www.w3.org/2000/svg">
<path d="M11.6 15.9H7.3L6.24 19H3.5L8.54 4.9H10.56L15.6 19H12.72L11.6 15.9ZM8 13.7H11L9.96 10.58L9.54 8.38H9.44L9.02 10.6L8 13.7ZM25.1383 19C25.1383 20.4533 24.7449 21.52 23.9583 22.2C23.1716 22.8933 22.0716 23.24 20.6583 23.24C19.6983 23.24 18.9383 23.1733 18.3783 23.04C17.8316 22.9067 17.4183 22.7667 17.1383 22.62L17.6783 20.56C17.9849 20.68 18.3383 20.8 18.7383 20.92C19.1516 21.04 19.6583 21.1 20.2583 21.1C21.1649 21.1 21.7783 20.9 22.0983 20.5C22.4316 20.1133 22.5983 19.5667 22.5983 18.86V18.22H22.5183C22.0516 18.8467 21.2249 19.16 20.0383 19.16C18.7449 19.16 17.7783 18.76 17.1383 17.96C16.5116 17.16 16.1983 15.9067 16.1983 14.2C16.1983 12.4133 16.6249 11.06 17.4783 10.14C18.3316 9.22 19.5716 8.76 21.1983 8.76C22.0516 8.76 22.8116 8.82 23.4783 8.94C24.1583 9.06 24.7116 9.2 25.1383 9.36V19ZM20.7383 17.08C21.2449 17.08 21.6316 16.9667 21.8983 16.74C22.1783 16.5133 22.3916 16.1733 22.5383 15.72V11.22C22.1249 11.0467 21.6116 10.96 20.9983 10.96C20.3316 10.96 19.8116 11.2133 19.4383 11.72C19.0649 12.2133 18.8783 13.0067 18.8783 14.1C18.8783 15.0733 19.0383 15.8133 19.3583 16.32C19.6783 16.8267 20.1383 17.08 20.7383 17.08Z" fill="#111"/>
</svg>
