<svg width="30" height="24" viewBox="0 0 30 24" fill="none" xmlns="http://www.w3.org/2000/svg">
<path d="M6.84 4.8H9.64L14.86 19H12.02L10.7 15.46H5.74L4.44 19H1.6L6.84 4.8ZM10.2 13.52L8.24 7.66L6.2 13.52H10.2ZM20.2645 19.06C19.5712 19.06 18.9312 18.9267 18.3445 18.66C17.7712 18.38 17.2712 17.9933 16.8445 17.5C16.4312 17.0067 16.1112 16.44 15.8845 15.8C15.6579 15.16 15.5445 14.48 15.5445 13.76C15.5445 13 15.6645 12.2933 15.9045 11.64C16.1445 10.9867 16.4779 10.4133 16.9045 9.92C17.3445 9.41333 17.8579 9.02667 18.4445 8.76C19.0445 8.48 19.7045 8.34 20.4245 8.34C21.2379 8.34 21.9512 8.52667 22.5645 8.9C23.1779 9.26 23.6845 9.74667 24.0845 10.36V8.52H26.4245V18.5C26.4245 19.54 26.1712 20.4267 25.6645 21.16C25.1712 21.9067 24.4845 22.4733 23.6045 22.86C22.7245 23.26 21.7245 23.46 20.6045 23.46C19.4712 23.46 18.5112 23.2667 17.7245 22.88C16.9379 22.5067 16.2645 21.9733 15.7045 21.28L17.1645 19.86C17.5645 20.3533 18.0645 20.74 18.6645 21.02C19.2779 21.3 19.9245 21.44 20.6045 21.44C21.1779 21.44 21.6979 21.3333 22.1645 21.12C22.6445 20.92 23.0245 20.6 23.3045 20.16C23.5979 19.7333 23.7445 19.18 23.7445 18.5V17.18C23.3979 17.78 22.9045 18.2467 22.2645 18.58C21.6379 18.9 20.9712 19.06 20.2645 19.06ZM21.1645 16.92C21.4579 16.92 21.7379 16.8733 22.0045 16.78C22.2712 16.6867 22.5179 16.56 22.7445 16.4C22.9712 16.24 23.1712 16.0533 23.3445 15.84C23.5179 15.6133 23.6512 15.3867 23.7445 15.16V12.66C23.5845 12.2467 23.3579 11.8867 23.0645 11.58C22.7845 11.2733 22.4645 11.04 22.1045 10.88C21.7579 10.7067 21.3912 10.62 21.0045 10.62C20.5912 10.62 20.2179 10.7067 19.8845 10.88C19.5512 11.0533 19.2645 11.3 19.0245 11.62C18.7845 11.9267 18.5979 12.2733 18.4645 12.66C18.3445 13.0333 18.2845 13.4267 18.2845 13.84C18.2845 14.2667 18.3579 14.6667 18.5045 15.04C18.6512 15.4133 18.8512 15.74 19.1045 16.02C19.3712 16.3 19.6779 16.52 20.0245 16.68C20.3845 16.84 20.7645 16.92 21.1645 16.92Z" fill="#111"/>
</svg>
